<mxfile host="app.diagrams.net" agent="Mozilla/5.0 (Windows NT 10.0; Win64; x64) AppleWebKit/537.36 (KHTML, like Gecko) Chrome/130.0.0.0 Safari/537.36 Edg/130.0.0.0" version="24.8.4">
  <diagram name="Página-1" id="SKr4JnAI6dUfP8ET-OXA">
    <mxGraphModel dx="782" dy="870" grid="1" gridSize="10" guides="1" tooltips="1" connect="1" arrows="1" fold="1" page="1" pageScale="1" pageWidth="1920" pageHeight="1200" math="0" shadow="0">
      <root>
        <mxCell id="0" />
        <mxCell id="1" parent="0" />
        <mxCell id="InTDDSVPD--su6Mw10KX-32" value="" style="edgeStyle=orthogonalEdgeStyle;rounded=0;orthogonalLoop=1;jettySize=auto;html=1;endArrow=none;endFill=0;" parent="1" source="InTDDSVPD--su6Mw10KX-1" target="InTDDSVPD--su6Mw10KX-16" edge="1">
          <mxGeometry relative="1" as="geometry" />
        </mxCell>
        <mxCell id="InTDDSVPD--su6Mw10KX-33" value="" style="edgeStyle=orthogonalEdgeStyle;rounded=0;orthogonalLoop=1;jettySize=auto;html=1;endArrow=none;endFill=0;" parent="1" source="InTDDSVPD--su6Mw10KX-1" target="InTDDSVPD--su6Mw10KX-14" edge="1">
          <mxGeometry relative="1" as="geometry" />
        </mxCell>
        <mxCell id="InTDDSVPD--su6Mw10KX-86" value="" style="rounded=0;orthogonalLoop=1;jettySize=auto;html=1;endArrow=none;endFill=0;" parent="1" source="InTDDSVPD--su6Mw10KX-1" target="InTDDSVPD--su6Mw10KX-77" edge="1">
          <mxGeometry relative="1" as="geometry" />
        </mxCell>
        <mxCell id="InTDDSVPD--su6Mw10KX-1" value="USUARIO" style="rounded=0;whiteSpace=wrap;html=1;" parent="1" vertex="1">
          <mxGeometry x="770" y="120" width="120" height="60" as="geometry" />
        </mxCell>
        <mxCell id="InTDDSVPD--su6Mw10KX-38" value="" style="rounded=0;orthogonalLoop=1;jettySize=auto;html=1;endArrow=none;endFill=0;exitX=0.5;exitY=0;exitDx=0;exitDy=0;" parent="1" source="InTDDSVPD--su6Mw10KX-2" target="InTDDSVPD--su6Mw10KX-17" edge="1">
          <mxGeometry relative="1" as="geometry">
            <mxPoint x="1290" y="370" as="sourcePoint" />
          </mxGeometry>
        </mxCell>
        <mxCell id="InTDDSVPD--su6Mw10KX-40" value="" style="rounded=0;orthogonalLoop=1;jettySize=auto;html=1;endArrow=none;endFill=0;" parent="1" source="InTDDSVPD--su6Mw10KX-2" target="InTDDSVPD--su6Mw10KX-22" edge="1">
          <mxGeometry relative="1" as="geometry" />
        </mxCell>
        <mxCell id="InTDDSVPD--su6Mw10KX-2" value="ESTUDIANTE" style="rounded=0;whiteSpace=wrap;html=1;" parent="1" vertex="1">
          <mxGeometry x="1200" y="370" width="120" height="60" as="geometry" />
        </mxCell>
        <mxCell id="InTDDSVPD--su6Mw10KX-29" value="" style="edgeStyle=orthogonalEdgeStyle;rounded=0;orthogonalLoop=1;jettySize=auto;html=1;endArrow=none;endFill=0;" parent="1" source="InTDDSVPD--su6Mw10KX-3" target="InTDDSVPD--su6Mw10KX-21" edge="1">
          <mxGeometry relative="1" as="geometry" />
        </mxCell>
        <mxCell id="InTDDSVPD--su6Mw10KX-30" value="" style="edgeStyle=orthogonalEdgeStyle;rounded=0;orthogonalLoop=1;jettySize=auto;html=1;endArrow=none;endFill=0;" parent="1" source="InTDDSVPD--su6Mw10KX-3" target="InTDDSVPD--su6Mw10KX-18" edge="1">
          <mxGeometry relative="1" as="geometry" />
        </mxCell>
        <mxCell id="InTDDSVPD--su6Mw10KX-31" value="" style="edgeStyle=orthogonalEdgeStyle;rounded=0;orthogonalLoop=1;jettySize=auto;html=1;endArrow=none;endFill=0;exitX=0.663;exitY=0.964;exitDx=0;exitDy=0;exitPerimeter=0;" parent="1" source="InTDDSVPD--su6Mw10KX-3" target="InTDDSVPD--su6Mw10KX-20" edge="1">
          <mxGeometry relative="1" as="geometry" />
        </mxCell>
        <mxCell id="InTDDSVPD--su6Mw10KX-3" value="PROFESOR" style="rounded=0;whiteSpace=wrap;html=1;" parent="1" vertex="1">
          <mxGeometry x="770" y="370" width="120" height="60" as="geometry" />
        </mxCell>
        <mxCell id="InTDDSVPD--su6Mw10KX-46" value="" style="rounded=0;orthogonalLoop=1;jettySize=auto;html=1;endArrow=none;endFill=0;" parent="1" source="InTDDSVPD--su6Mw10KX-5" target="InTDDSVPD--su6Mw10KX-41" edge="1">
          <mxGeometry relative="1" as="geometry" />
        </mxCell>
        <mxCell id="InTDDSVPD--su6Mw10KX-5" value="CURSO" style="rounded=0;whiteSpace=wrap;html=1;" parent="1" vertex="1">
          <mxGeometry x="980" y="640" width="120" height="60" as="geometry" />
        </mxCell>
        <mxCell id="InTDDSVPD--su6Mw10KX-57" value="" style="rounded=0;orthogonalLoop=1;jettySize=auto;html=1;endArrow=none;endFill=0;" parent="1" source="InTDDSVPD--su6Mw10KX-6" target="InTDDSVPD--su6Mw10KX-56" edge="1">
          <mxGeometry relative="1" as="geometry" />
        </mxCell>
        <mxCell id="InTDDSVPD--su6Mw10KX-60" value="" style="rounded=0;orthogonalLoop=1;jettySize=auto;html=1;endArrow=none;endFill=0;" parent="1" source="InTDDSVPD--su6Mw10KX-6" target="InTDDSVPD--su6Mw10KX-51" edge="1">
          <mxGeometry relative="1" as="geometry" />
        </mxCell>
        <mxCell id="InTDDSVPD--su6Mw10KX-6" value="ASISTENCIA" style="rounded=0;whiteSpace=wrap;html=1;" parent="1" vertex="1">
          <mxGeometry x="1450" y="1050" width="120" height="60" as="geometry" />
        </mxCell>
        <mxCell id="Obs5ATMhI5aagDlobxmG-7" value="" style="edgeStyle=orthogonalEdgeStyle;rounded=0;orthogonalLoop=1;jettySize=auto;html=1;endArrow=none;endFill=0;" edge="1" parent="1" source="InTDDSVPD--su6Mw10KX-7" target="pCD0jgpHs92SvYQqpGJX-36">
          <mxGeometry relative="1" as="geometry" />
        </mxCell>
        <mxCell id="Obs5ATMhI5aagDlobxmG-8" value="1" style="edgeLabel;html=1;align=center;verticalAlign=middle;resizable=0;points=[];" vertex="1" connectable="0" parent="Obs5ATMhI5aagDlobxmG-7">
          <mxGeometry x="-0.7084" relative="1" as="geometry">
            <mxPoint as="offset" />
          </mxGeometry>
        </mxCell>
        <mxCell id="InTDDSVPD--su6Mw10KX-7" value="PREGUNTA" style="rounded=0;whiteSpace=wrap;html=1;" parent="1" vertex="1">
          <mxGeometry x="980" y="1460" width="120" height="60" as="geometry" />
        </mxCell>
        <mxCell id="InTDDSVPD--su6Mw10KX-35" value="" style="rounded=0;orthogonalLoop=1;jettySize=auto;html=1;entryX=1;entryY=0;entryDx=0;entryDy=0;endArrow=none;endFill=0;" parent="1" source="InTDDSVPD--su6Mw10KX-11" target="InTDDSVPD--su6Mw10KX-1" edge="1">
          <mxGeometry relative="1" as="geometry" />
        </mxCell>
        <mxCell id="InTDDSVPD--su6Mw10KX-11" value="Documento de&amp;nbsp;&lt;div&gt;Identidad&lt;/div&gt;" style="ellipse;whiteSpace=wrap;html=1;" parent="1" vertex="1">
          <mxGeometry x="910" y="30" width="100" height="60" as="geometry" />
        </mxCell>
        <mxCell id="InTDDSVPD--su6Mw10KX-34" value="" style="rounded=0;orthogonalLoop=1;jettySize=auto;html=1;entryX=0;entryY=0;entryDx=0;entryDy=0;endArrow=none;endFill=0;" parent="1" source="InTDDSVPD--su6Mw10KX-13" target="InTDDSVPD--su6Mw10KX-1" edge="1">
          <mxGeometry relative="1" as="geometry" />
        </mxCell>
        <mxCell id="InTDDSVPD--su6Mw10KX-13" value="Contraseña" style="ellipse;whiteSpace=wrap;html=1;" parent="1" vertex="1">
          <mxGeometry x="660" y="30" width="100" height="60" as="geometry" />
        </mxCell>
        <mxCell id="InTDDSVPD--su6Mw10KX-14" value="Correo Electrónico" style="ellipse;whiteSpace=wrap;html=1;" parent="1" vertex="1">
          <mxGeometry x="610" y="120" width="100" height="60" as="geometry" />
        </mxCell>
        <mxCell id="InTDDSVPD--su6Mw10KX-36" value="" style="rounded=0;orthogonalLoop=1;jettySize=auto;html=1;endArrow=none;endFill=0;" parent="1" source="InTDDSVPD--su6Mw10KX-15" target="InTDDSVPD--su6Mw10KX-1" edge="1">
          <mxGeometry relative="1" as="geometry" />
        </mxCell>
        <mxCell id="InTDDSVPD--su6Mw10KX-15" value="Nombre" style="ellipse;whiteSpace=wrap;html=1;" parent="1" vertex="1">
          <mxGeometry x="960" y="100" width="100" height="60" as="geometry" />
        </mxCell>
        <mxCell id="InTDDSVPD--su6Mw10KX-16" value="&lt;u&gt;IDUsuario&lt;/u&gt;" style="ellipse;whiteSpace=wrap;html=1;" parent="1" vertex="1">
          <mxGeometry x="780" y="20" width="100" height="60" as="geometry" />
        </mxCell>
        <mxCell id="InTDDSVPD--su6Mw10KX-17" value="&lt;u&gt;IdEstudiante&lt;/u&gt;" style="ellipse;whiteSpace=wrap;html=1;" parent="1" vertex="1">
          <mxGeometry x="1190" y="270" width="100" height="60" as="geometry" />
        </mxCell>
        <mxCell id="InTDDSVPD--su6Mw10KX-18" value="&lt;u&gt;IDprofesor&lt;/u&gt;" style="ellipse;whiteSpace=wrap;html=1;" parent="1" vertex="1">
          <mxGeometry x="930" y="370" width="100" height="60" as="geometry" />
        </mxCell>
        <mxCell id="InTDDSVPD--su6Mw10KX-20" value="Direccion_&lt;div&gt;residencia&lt;/div&gt;" style="ellipse;whiteSpace=wrap;html=1;" parent="1" vertex="1">
          <mxGeometry x="800" y="470" width="100" height="60" as="geometry" />
        </mxCell>
        <mxCell id="InTDDSVPD--su6Mw10KX-21" value="Foto" style="ellipse;whiteSpace=wrap;html=1;" parent="1" vertex="1">
          <mxGeometry x="630" y="370" width="100" height="60" as="geometry" />
        </mxCell>
        <mxCell id="InTDDSVPD--su6Mw10KX-22" value="Número de Celular" style="ellipse;whiteSpace=wrap;html=1;" parent="1" vertex="1">
          <mxGeometry x="1300" y="290" width="100" height="60" as="geometry" />
        </mxCell>
        <mxCell id="InTDDSVPD--su6Mw10KX-37" value="" style="rounded=0;orthogonalLoop=1;jettySize=auto;html=1;endArrow=none;endFill=0;" parent="1" source="InTDDSVPD--su6Mw10KX-23" target="InTDDSVPD--su6Mw10KX-2" edge="1">
          <mxGeometry relative="1" as="geometry" />
        </mxCell>
        <mxCell id="InTDDSVPD--su6Mw10KX-23" value="Registro Acedémico" style="ellipse;whiteSpace=wrap;html=1;" parent="1" vertex="1">
          <mxGeometry x="1060" y="370" width="100" height="60" as="geometry" />
        </mxCell>
        <mxCell id="InTDDSVPD--su6Mw10KX-41" value="&lt;u&gt;IDCurso&lt;/u&gt;" style="ellipse;whiteSpace=wrap;html=1;" parent="1" vertex="1">
          <mxGeometry x="830" y="585" width="100" height="60" as="geometry" />
        </mxCell>
        <mxCell id="InTDDSVPD--su6Mw10KX-50" value="" style="rounded=0;orthogonalLoop=1;jettySize=auto;html=1;endArrow=none;endFill=0;entryX=0.5;entryY=1;entryDx=0;entryDy=0;" parent="1" source="InTDDSVPD--su6Mw10KX-42" target="InTDDSVPD--su6Mw10KX-5" edge="1">
          <mxGeometry relative="1" as="geometry">
            <mxPoint x="1020" y="710" as="targetPoint" />
          </mxGeometry>
        </mxCell>
        <mxCell id="InTDDSVPD--su6Mw10KX-42" value="Cod_clase" style="ellipse;whiteSpace=wrap;html=1;" parent="1" vertex="1">
          <mxGeometry x="1070" y="730" width="100" height="60" as="geometry" />
        </mxCell>
        <mxCell id="InTDDSVPD--su6Mw10KX-49" value="" style="rounded=0;orthogonalLoop=1;jettySize=auto;html=1;endArrow=none;endFill=0;" parent="1" source="InTDDSVPD--su6Mw10KX-43" target="InTDDSVPD--su6Mw10KX-5" edge="1">
          <mxGeometry relative="1" as="geometry" />
        </mxCell>
        <mxCell id="InTDDSVPD--su6Mw10KX-43" value="descripcion" style="ellipse;whiteSpace=wrap;html=1;" parent="1" vertex="1">
          <mxGeometry x="880" y="730" width="100" height="60" as="geometry" />
        </mxCell>
        <mxCell id="InTDDSVPD--su6Mw10KX-51" value="Fecha_hora" style="ellipse;whiteSpace=wrap;html=1;" parent="1" vertex="1">
          <mxGeometry x="1590" y="1100" width="100" height="60" as="geometry" />
        </mxCell>
        <mxCell id="InTDDSVPD--su6Mw10KX-61" value="" style="rounded=0;orthogonalLoop=1;jettySize=auto;html=1;endArrow=none;endFill=0;" parent="1" source="InTDDSVPD--su6Mw10KX-53" target="InTDDSVPD--su6Mw10KX-6" edge="1">
          <mxGeometry relative="1" as="geometry" />
        </mxCell>
        <mxCell id="InTDDSVPD--su6Mw10KX-53" value="Localización" style="ellipse;whiteSpace=wrap;html=1;" parent="1" vertex="1">
          <mxGeometry x="1450" y="1130" width="100" height="60" as="geometry" />
        </mxCell>
        <mxCell id="InTDDSVPD--su6Mw10KX-64" value="" style="rounded=0;orthogonalLoop=1;jettySize=auto;html=1;entryX=0;entryY=1;entryDx=0;entryDy=0;endArrow=none;endFill=0;" parent="1" source="InTDDSVPD--su6Mw10KX-54" target="InTDDSVPD--su6Mw10KX-53" edge="1">
          <mxGeometry relative="1" as="geometry" />
        </mxCell>
        <mxCell id="InTDDSVPD--su6Mw10KX-54" value="Longitud" style="ellipse;whiteSpace=wrap;html=1;" parent="1" vertex="1">
          <mxGeometry x="1370" y="1200" width="100" height="60" as="geometry" />
        </mxCell>
        <mxCell id="InTDDSVPD--su6Mw10KX-63" value="" style="rounded=0;orthogonalLoop=1;jettySize=auto;html=1;endArrow=none;endFill=0;entryX=1;entryY=1;entryDx=0;entryDy=0;" parent="1" source="InTDDSVPD--su6Mw10KX-55" target="InTDDSVPD--su6Mw10KX-53" edge="1">
          <mxGeometry relative="1" as="geometry" />
        </mxCell>
        <mxCell id="InTDDSVPD--su6Mw10KX-55" value="Latitud" style="ellipse;whiteSpace=wrap;html=1;" parent="1" vertex="1">
          <mxGeometry x="1510" y="1200" width="100" height="60" as="geometry" />
        </mxCell>
        <mxCell id="InTDDSVPD--su6Mw10KX-56" value="&lt;u&gt;IDasistencia&lt;/u&gt;" style="ellipse;whiteSpace=wrap;html=1;" parent="1" vertex="1">
          <mxGeometry x="1360" y="980" width="100" height="60" as="geometry" />
        </mxCell>
        <mxCell id="InTDDSVPD--su6Mw10KX-73" value="" style="rounded=0;orthogonalLoop=1;jettySize=auto;html=1;endArrow=none;endFill=0;" parent="1" source="InTDDSVPD--su6Mw10KX-66" target="InTDDSVPD--su6Mw10KX-7" edge="1">
          <mxGeometry relative="1" as="geometry" />
        </mxCell>
        <mxCell id="InTDDSVPD--su6Mw10KX-66" value="CodigoQR" style="ellipse;whiteSpace=wrap;html=1;" parent="1" vertex="1">
          <mxGeometry x="950" y="1570" width="100" height="60" as="geometry" />
        </mxCell>
        <mxCell id="InTDDSVPD--su6Mw10KX-71" value="" style="rounded=0;orthogonalLoop=1;jettySize=auto;html=1;endArrow=none;endFill=0;" parent="1" source="InTDDSVPD--su6Mw10KX-67" target="InTDDSVPD--su6Mw10KX-7" edge="1">
          <mxGeometry relative="1" as="geometry" />
        </mxCell>
        <mxCell id="InTDDSVPD--su6Mw10KX-67" value="&lt;u&gt;IDpregunta&lt;/u&gt;" style="ellipse;whiteSpace=wrap;html=1;" parent="1" vertex="1">
          <mxGeometry x="1080" y="1540" width="100" height="60" as="geometry" />
        </mxCell>
        <mxCell id="InTDDSVPD--su6Mw10KX-77" value="" style="triangle;whiteSpace=wrap;html=1;rotation=-90;" parent="1" vertex="1">
          <mxGeometry x="800" y="210" width="60" height="80" as="geometry" />
        </mxCell>
        <mxCell id="InTDDSVPD--su6Mw10KX-78" value="Es un" style="text;html=1;align=center;verticalAlign=middle;whiteSpace=wrap;rounded=0;" parent="1" vertex="1">
          <mxGeometry x="810" y="250" width="40" height="20" as="geometry" />
        </mxCell>
        <mxCell id="InTDDSVPD--su6Mw10KX-79" value="" style="endArrow=none;html=1;rounded=0;entryX=0.5;entryY=0;entryDx=0;entryDy=0;exitX=-0.006;exitY=0.991;exitDx=0;exitDy=0;exitPerimeter=0;" parent="1" source="InTDDSVPD--su6Mw10KX-77" target="InTDDSVPD--su6Mw10KX-2" edge="1">
          <mxGeometry width="50" height="50" relative="1" as="geometry">
            <mxPoint x="970" y="400" as="sourcePoint" />
            <mxPoint x="1020" y="350" as="targetPoint" />
          </mxGeometry>
        </mxCell>
        <mxCell id="InTDDSVPD--su6Mw10KX-81" value="" style="endArrow=none;html=1;rounded=0;exitX=0;exitY=0.5;exitDx=0;exitDy=0;entryX=0.5;entryY=0;entryDx=0;entryDy=0;" parent="1" source="InTDDSVPD--su6Mw10KX-77" target="InTDDSVPD--su6Mw10KX-3" edge="1">
          <mxGeometry width="50" height="50" relative="1" as="geometry">
            <mxPoint x="820" y="320" as="sourcePoint" />
            <mxPoint x="870" y="270" as="targetPoint" />
          </mxGeometry>
        </mxCell>
        <mxCell id="InTDDSVPD--su6Mw10KX-90" value="" style="rounded=0;orthogonalLoop=1;jettySize=auto;html=1;endArrow=none;endFill=0;edgeStyle=orthogonalEdgeStyle;entryX=1;entryY=0.25;entryDx=0;entryDy=0;exitX=0.5;exitY=0;exitDx=0;exitDy=0;" parent="1" source="InTDDSVPD--su6Mw10KX-89" target="InTDDSVPD--su6Mw10KX-2" edge="1">
          <mxGeometry relative="1" as="geometry">
            <Array as="points">
              <mxPoint x="1510" y="590" />
              <mxPoint x="1320" y="590" />
            </Array>
          </mxGeometry>
        </mxCell>
        <mxCell id="InTDDSVPD--su6Mw10KX-122" value="1" style="edgeLabel;html=1;align=center;verticalAlign=middle;resizable=0;points=[];" parent="InTDDSVPD--su6Mw10KX-90" vertex="1" connectable="0">
          <mxGeometry x="0.8146" relative="1" as="geometry">
            <mxPoint as="offset" />
          </mxGeometry>
        </mxCell>
        <mxCell id="InTDDSVPD--su6Mw10KX-91" value="" style="rounded=0;orthogonalLoop=1;jettySize=auto;html=1;endArrow=none;endFill=0;edgeStyle=orthogonalEdgeStyle;" parent="1" source="InTDDSVPD--su6Mw10KX-89" target="InTDDSVPD--su6Mw10KX-6" edge="1">
          <mxGeometry relative="1" as="geometry" />
        </mxCell>
        <mxCell id="InTDDSVPD--su6Mw10KX-123" value="1" style="edgeLabel;html=1;align=center;verticalAlign=middle;resizable=0;points=[];" parent="InTDDSVPD--su6Mw10KX-91" vertex="1" connectable="0">
          <mxGeometry x="0.4659" relative="1" as="geometry">
            <mxPoint as="offset" />
          </mxGeometry>
        </mxCell>
        <mxCell id="InTDDSVPD--su6Mw10KX-89" value="Registra" style="rhombus;whiteSpace=wrap;html=1;" parent="1" vertex="1">
          <mxGeometry x="1470" y="790" width="80" height="80" as="geometry" />
        </mxCell>
        <mxCell id="InTDDSVPD--su6Mw10KX-93" value="" style="rounded=0;orthogonalLoop=1;jettySize=auto;html=1;endArrow=none;endFill=0;exitX=0.5;exitY=0;exitDx=0;exitDy=0;edgeStyle=orthogonalEdgeStyle;entryX=0;entryY=1;entryDx=0;entryDy=0;" parent="1" source="InTDDSVPD--su6Mw10KX-92" target="InTDDSVPD--su6Mw10KX-2" edge="1">
          <mxGeometry relative="1" as="geometry" />
        </mxCell>
        <mxCell id="InTDDSVPD--su6Mw10KX-109" value="N" style="edgeLabel;html=1;align=center;verticalAlign=middle;resizable=0;points=[];" parent="InTDDSVPD--su6Mw10KX-93" vertex="1" connectable="0">
          <mxGeometry x="0.8344" y="2" relative="1" as="geometry">
            <mxPoint as="offset" />
          </mxGeometry>
        </mxCell>
        <mxCell id="InTDDSVPD--su6Mw10KX-94" value="" style="edgeStyle=orthogonalEdgeStyle;rounded=0;orthogonalLoop=1;jettySize=auto;html=1;endArrow=none;endFill=0;entryX=0.75;entryY=0;entryDx=0;entryDy=0;" parent="1" source="InTDDSVPD--su6Mw10KX-92" target="InTDDSVPD--su6Mw10KX-5" edge="1">
          <mxGeometry relative="1" as="geometry" />
        </mxCell>
        <mxCell id="InTDDSVPD--su6Mw10KX-110" value="M" style="edgeLabel;html=1;align=center;verticalAlign=middle;resizable=0;points=[];" parent="InTDDSVPD--su6Mw10KX-94" vertex="1" connectable="0">
          <mxGeometry x="0.7584" y="2" relative="1" as="geometry">
            <mxPoint as="offset" />
          </mxGeometry>
        </mxCell>
        <mxCell id="InTDDSVPD--su6Mw10KX-92" value="Asiste" style="rhombus;whiteSpace=wrap;html=1;" parent="1" vertex="1">
          <mxGeometry x="1080" y="480" width="80" height="80" as="geometry" />
        </mxCell>
        <mxCell id="InTDDSVPD--su6Mw10KX-96" value="" style="edgeStyle=orthogonalEdgeStyle;rounded=0;orthogonalLoop=1;jettySize=auto;html=1;endArrow=none;endFill=0;entryX=1;entryY=1;entryDx=0;entryDy=0;exitX=0.5;exitY=0;exitDx=0;exitDy=0;" parent="1" source="InTDDSVPD--su6Mw10KX-95" target="InTDDSVPD--su6Mw10KX-3" edge="1">
          <mxGeometry relative="1" as="geometry" />
        </mxCell>
        <mxCell id="InTDDSVPD--su6Mw10KX-111" value="1" style="edgeLabel;html=1;align=center;verticalAlign=middle;resizable=0;points=[];" parent="InTDDSVPD--su6Mw10KX-96" vertex="1" connectable="0">
          <mxGeometry x="0.8402" y="1" relative="1" as="geometry">
            <mxPoint as="offset" />
          </mxGeometry>
        </mxCell>
        <mxCell id="InTDDSVPD--su6Mw10KX-97" value="" style="edgeStyle=orthogonalEdgeStyle;rounded=0;orthogonalLoop=1;jettySize=auto;html=1;endArrow=none;endFill=0;entryX=0.25;entryY=0;entryDx=0;entryDy=0;" parent="1" source="InTDDSVPD--su6Mw10KX-95" target="InTDDSVPD--su6Mw10KX-5" edge="1">
          <mxGeometry relative="1" as="geometry" />
        </mxCell>
        <mxCell id="InTDDSVPD--su6Mw10KX-112" value="Q" style="edgeLabel;html=1;align=center;verticalAlign=middle;resizable=0;points=[];" parent="InTDDSVPD--su6Mw10KX-97" vertex="1" connectable="0">
          <mxGeometry x="0.7946" y="-1" relative="1" as="geometry">
            <mxPoint as="offset" />
          </mxGeometry>
        </mxCell>
        <mxCell id="InTDDSVPD--su6Mw10KX-95" value="Programa" style="rhombus;whiteSpace=wrap;html=1;" parent="1" vertex="1">
          <mxGeometry x="920" y="480" width="80" height="80" as="geometry" />
        </mxCell>
        <mxCell id="InTDDSVPD--su6Mw10KX-98" value="Responde" style="rhombus;whiteSpace=wrap;html=1;" parent="1" vertex="1">
          <mxGeometry x="1730" y="1450" width="80" height="80" as="geometry" />
        </mxCell>
        <mxCell id="Ly8pcLTeFkxgY5-yv_l1-1" value="Apellido" style="ellipse;whiteSpace=wrap;html=1;" parent="1" vertex="1">
          <mxGeometry x="940" y="180" width="100" height="50" as="geometry" />
        </mxCell>
        <mxCell id="Ly8pcLTeFkxgY5-yv_l1-2" value="" style="endArrow=none;html=1;rounded=0;" parent="1" source="InTDDSVPD--su6Mw10KX-1" target="Ly8pcLTeFkxgY5-yv_l1-1" edge="1">
          <mxGeometry width="50" height="50" relative="1" as="geometry">
            <mxPoint x="850" y="280" as="sourcePoint" />
            <mxPoint x="900" y="230" as="targetPoint" />
          </mxGeometry>
        </mxCell>
        <mxCell id="Ly8pcLTeFkxgY5-yv_l1-3" value="nombre_curso" style="ellipse;whiteSpace=wrap;html=1;" parent="1" vertex="1">
          <mxGeometry x="1150" y="640" width="90" height="60" as="geometry" />
        </mxCell>
        <mxCell id="Ly8pcLTeFkxgY5-yv_l1-7" value="" style="endArrow=none;html=1;rounded=0;exitX=0;exitY=0.5;exitDx=0;exitDy=0;entryX=1;entryY=0.5;entryDx=0;entryDy=0;" parent="1" source="Ly8pcLTeFkxgY5-yv_l1-3" target="InTDDSVPD--su6Mw10KX-5" edge="1">
          <mxGeometry width="50" height="50" relative="1" as="geometry">
            <mxPoint x="1000" y="710" as="sourcePoint" />
            <mxPoint x="1050" y="660" as="targetPoint" />
          </mxGeometry>
        </mxCell>
        <mxCell id="Ly8pcLTeFkxgY5-yv_l1-8" value="Estado" style="ellipse;whiteSpace=wrap;html=1;" parent="1" vertex="1">
          <mxGeometry x="1590" y="1000" width="80" height="50" as="geometry" />
        </mxCell>
        <mxCell id="Ly8pcLTeFkxgY5-yv_l1-35" value="" style="endArrow=none;html=1;rounded=0;entryX=0;entryY=1;entryDx=0;entryDy=0;exitX=1;exitY=0.5;exitDx=0;exitDy=0;" parent="1" source="InTDDSVPD--su6Mw10KX-6" target="Ly8pcLTeFkxgY5-yv_l1-8" edge="1">
          <mxGeometry width="50" height="50" relative="1" as="geometry">
            <mxPoint x="1690" y="860" as="sourcePoint" />
            <mxPoint x="1740" y="810" as="targetPoint" />
          </mxGeometry>
        </mxCell>
        <mxCell id="pCD0jgpHs92SvYQqpGJX-9" value="SESION" style="rounded=0;whiteSpace=wrap;html=1;" parent="1" vertex="1">
          <mxGeometry x="980" y="1050" width="120" height="60" as="geometry" />
        </mxCell>
        <mxCell id="pCD0jgpHs92SvYQqpGJX-10" value="&lt;u&gt;ID_Sesion&lt;/u&gt;" style="ellipse;whiteSpace=wrap;html=1;" parent="1" vertex="1">
          <mxGeometry x="850" y="1010" width="100" height="60" as="geometry" />
        </mxCell>
        <mxCell id="pCD0jgpHs92SvYQqpGJX-11" value="Material_clase" style="ellipse;whiteSpace=wrap;html=1;" parent="1" vertex="1">
          <mxGeometry x="1080" y="970" width="100" height="60" as="geometry" />
        </mxCell>
        <mxCell id="pCD0jgpHs92SvYQqpGJX-12" value="Fecha" style="ellipse;whiteSpace=wrap;html=1;" parent="1" vertex="1">
          <mxGeometry x="840" y="1080" width="100" height="60" as="geometry" />
        </mxCell>
        <mxCell id="pCD0jgpHs92SvYQqpGJX-13" value="Hora_fin" style="ellipse;whiteSpace=wrap;html=1;" parent="1" vertex="1">
          <mxGeometry x="850" y="1160" width="100" height="60" as="geometry" />
        </mxCell>
        <mxCell id="pCD0jgpHs92SvYQqpGJX-14" value="Hora_inicio" style="ellipse;whiteSpace=wrap;html=1;" parent="1" vertex="1">
          <mxGeometry x="1100" y="1160" width="100" height="60" as="geometry" />
        </mxCell>
        <mxCell id="pCD0jgpHs92SvYQqpGJX-15" value="TIENE" style="rhombus;whiteSpace=wrap;html=1;" parent="1" vertex="1">
          <mxGeometry x="1000" y="850" width="80" height="80" as="geometry" />
        </mxCell>
        <mxCell id="pCD0jgpHs92SvYQqpGJX-16" value="1" style="endArrow=none;html=1;rounded=0;entryX=0.5;entryY=1;entryDx=0;entryDy=0;exitX=0.5;exitY=0;exitDx=0;exitDy=0;" parent="1" source="pCD0jgpHs92SvYQqpGJX-15" target="InTDDSVPD--su6Mw10KX-5" edge="1">
          <mxGeometry width="50" height="50" relative="1" as="geometry">
            <mxPoint x="960" y="870" as="sourcePoint" />
            <mxPoint x="1010" y="820" as="targetPoint" />
          </mxGeometry>
        </mxCell>
        <mxCell id="pCD0jgpHs92SvYQqpGJX-17" value="" style="endArrow=none;html=1;rounded=0;exitX=0.5;exitY=0;exitDx=0;exitDy=0;entryX=0.5;entryY=1;entryDx=0;entryDy=0;" parent="1" source="pCD0jgpHs92SvYQqpGJX-9" target="pCD0jgpHs92SvYQqpGJX-15" edge="1">
          <mxGeometry width="50" height="50" relative="1" as="geometry">
            <mxPoint x="960" y="870" as="sourcePoint" />
            <mxPoint x="1010" y="820" as="targetPoint" />
          </mxGeometry>
        </mxCell>
        <mxCell id="pCD0jgpHs92SvYQqpGJX-18" value="Z" style="edgeLabel;html=1;align=center;verticalAlign=middle;resizable=0;points=[];" parent="pCD0jgpHs92SvYQqpGJX-17" vertex="1" connectable="0">
          <mxGeometry x="-0.5783" y="3" relative="1" as="geometry">
            <mxPoint as="offset" />
          </mxGeometry>
        </mxCell>
        <mxCell id="pCD0jgpHs92SvYQqpGJX-19" value="" style="endArrow=none;html=1;rounded=0;" parent="1" source="pCD0jgpHs92SvYQqpGJX-10" target="pCD0jgpHs92SvYQqpGJX-9" edge="1">
          <mxGeometry width="50" height="50" relative="1" as="geometry">
            <mxPoint x="960" y="1040" as="sourcePoint" />
            <mxPoint x="1010" y="990" as="targetPoint" />
          </mxGeometry>
        </mxCell>
        <mxCell id="pCD0jgpHs92SvYQqpGJX-23" value="" style="endArrow=none;html=1;rounded=0;" parent="1" source="pCD0jgpHs92SvYQqpGJX-12" target="pCD0jgpHs92SvYQqpGJX-9" edge="1">
          <mxGeometry width="50" height="50" relative="1" as="geometry">
            <mxPoint x="960" y="1040" as="sourcePoint" />
            <mxPoint x="1010" y="990" as="targetPoint" />
          </mxGeometry>
        </mxCell>
        <mxCell id="pCD0jgpHs92SvYQqpGJX-24" value="" style="endArrow=none;html=1;rounded=0;" parent="1" source="pCD0jgpHs92SvYQqpGJX-9" target="pCD0jgpHs92SvYQqpGJX-11" edge="1">
          <mxGeometry width="50" height="50" relative="1" as="geometry">
            <mxPoint x="960" y="1040" as="sourcePoint" />
            <mxPoint x="1010" y="990" as="targetPoint" />
          </mxGeometry>
        </mxCell>
        <mxCell id="pCD0jgpHs92SvYQqpGJX-25" value="" style="endArrow=none;html=1;rounded=0;" parent="1" source="pCD0jgpHs92SvYQqpGJX-9" target="pCD0jgpHs92SvYQqpGJX-13" edge="1">
          <mxGeometry width="50" height="50" relative="1" as="geometry">
            <mxPoint x="970" y="1050" as="sourcePoint" />
            <mxPoint x="1020" y="1000" as="targetPoint" />
          </mxGeometry>
        </mxCell>
        <mxCell id="pCD0jgpHs92SvYQqpGJX-26" value="" style="endArrow=none;html=1;rounded=0;" parent="1" source="pCD0jgpHs92SvYQqpGJX-9" target="pCD0jgpHs92SvYQqpGJX-14" edge="1">
          <mxGeometry width="50" height="50" relative="1" as="geometry">
            <mxPoint x="980" y="1060" as="sourcePoint" />
            <mxPoint x="1030" y="1010" as="targetPoint" />
          </mxGeometry>
        </mxCell>
        <mxCell id="pCD0jgpHs92SvYQqpGJX-28" value="Almacena" style="rhombus;whiteSpace=wrap;html=1;" parent="1" vertex="1">
          <mxGeometry x="1230" y="1040" width="80" height="80" as="geometry" />
        </mxCell>
        <mxCell id="pCD0jgpHs92SvYQqpGJX-29" value="1" style="endArrow=none;html=1;rounded=0;" parent="1" source="pCD0jgpHs92SvYQqpGJX-9" target="pCD0jgpHs92SvYQqpGJX-28" edge="1">
          <mxGeometry width="50" height="50" relative="1" as="geometry">
            <mxPoint x="1240" y="1090" as="sourcePoint" />
            <mxPoint x="1290" y="1040" as="targetPoint" />
          </mxGeometry>
        </mxCell>
        <mxCell id="pCD0jgpHs92SvYQqpGJX-30" value="V" style="endArrow=none;html=1;rounded=0;" parent="1" source="pCD0jgpHs92SvYQqpGJX-28" target="InTDDSVPD--su6Mw10KX-6" edge="1">
          <mxGeometry width="50" height="50" relative="1" as="geometry">
            <mxPoint x="1240" y="1090" as="sourcePoint" />
            <mxPoint x="1290" y="1040" as="targetPoint" />
          </mxGeometry>
        </mxCell>
        <mxCell id="pCD0jgpHs92SvYQqpGJX-31" value="USA" style="rhombus;whiteSpace=wrap;html=1;" parent="1" vertex="1">
          <mxGeometry x="1000" y="1250" width="80" height="80" as="geometry" />
        </mxCell>
        <mxCell id="pCD0jgpHs92SvYQqpGJX-32" value="1" style="endArrow=none;html=1;rounded=0;entryX=0.5;entryY=1;entryDx=0;entryDy=0;exitX=0.5;exitY=0;exitDx=0;exitDy=0;" parent="1" source="pCD0jgpHs92SvYQqpGJX-31" target="pCD0jgpHs92SvYQqpGJX-9" edge="1">
          <mxGeometry width="50" height="50" relative="1" as="geometry">
            <mxPoint x="1060" y="1280" as="sourcePoint" />
            <mxPoint x="1110" y="1230" as="targetPoint" />
          </mxGeometry>
        </mxCell>
        <mxCell id="pCD0jgpHs92SvYQqpGJX-33" value="B" style="endArrow=none;html=1;rounded=0;exitX=0.5;exitY=0;exitDx=0;exitDy=0;entryX=0.5;entryY=1;entryDx=0;entryDy=0;" parent="1" source="InTDDSVPD--su6Mw10KX-7" target="pCD0jgpHs92SvYQqpGJX-31" edge="1">
          <mxGeometry width="50" height="50" relative="1" as="geometry">
            <mxPoint x="1060" y="1280" as="sourcePoint" />
            <mxPoint x="1110" y="1230" as="targetPoint" />
          </mxGeometry>
        </mxCell>
        <mxCell id="pCD0jgpHs92SvYQqpGJX-34" value="Respuesta" style="rounded=0;whiteSpace=wrap;html=1;" parent="1" vertex="1">
          <mxGeometry x="1400" y="1460" width="120" height="60" as="geometry" />
        </mxCell>
        <mxCell id="pCD0jgpHs92SvYQqpGJX-35" value="&lt;u&gt;IDRespuesta&lt;/u&gt;" style="ellipse;whiteSpace=wrap;html=1;" parent="1" vertex="1">
          <mxGeometry x="1360" y="1580" width="100" height="60" as="geometry" />
        </mxCell>
        <mxCell id="pCD0jgpHs92SvYQqpGJX-36" value="Almacena" style="rhombus;whiteSpace=wrap;html=1;" parent="1" vertex="1">
          <mxGeometry x="1210" y="1450" width="80" height="80" as="geometry" />
        </mxCell>
        <mxCell id="pCD0jgpHs92SvYQqpGJX-38" value="" style="endArrow=none;html=1;rounded=0;entryX=0;entryY=0.5;entryDx=0;entryDy=0;exitX=1;exitY=0.5;exitDx=0;exitDy=0;" parent="1" source="pCD0jgpHs92SvYQqpGJX-36" target="pCD0jgpHs92SvYQqpGJX-34" edge="1">
          <mxGeometry width="50" height="50" relative="1" as="geometry">
            <mxPoint x="1170" y="1480" as="sourcePoint" />
            <mxPoint x="1220" y="1430" as="targetPoint" />
          </mxGeometry>
        </mxCell>
        <mxCell id="Obs5ATMhI5aagDlobxmG-6" value="H" style="edgeLabel;html=1;align=center;verticalAlign=middle;resizable=0;points=[];" vertex="1" connectable="0" parent="pCD0jgpHs92SvYQqpGJX-38">
          <mxGeometry x="0.6303" y="-1" relative="1" as="geometry">
            <mxPoint as="offset" />
          </mxGeometry>
        </mxCell>
        <mxCell id="pCD0jgpHs92SvYQqpGJX-40" value="Respuesta" style="ellipse;whiteSpace=wrap;html=1;" parent="1" vertex="1">
          <mxGeometry x="1530" y="1580" width="100" height="60" as="geometry" />
        </mxCell>
        <mxCell id="pCD0jgpHs92SvYQqpGJX-41" value="" style="endArrow=none;html=1;rounded=0;" parent="1" source="pCD0jgpHs92SvYQqpGJX-35" target="pCD0jgpHs92SvYQqpGJX-34" edge="1">
          <mxGeometry width="50" height="50" relative="1" as="geometry">
            <mxPoint x="1260" y="1620" as="sourcePoint" />
            <mxPoint x="1310" y="1570" as="targetPoint" />
          </mxGeometry>
        </mxCell>
        <mxCell id="pCD0jgpHs92SvYQqpGJX-42" value="" style="endArrow=none;html=1;rounded=0;" parent="1" source="pCD0jgpHs92SvYQqpGJX-40" target="pCD0jgpHs92SvYQqpGJX-34" edge="1">
          <mxGeometry width="50" height="50" relative="1" as="geometry">
            <mxPoint x="1260" y="1620" as="sourcePoint" />
            <mxPoint x="1310" y="1570" as="targetPoint" />
          </mxGeometry>
        </mxCell>
        <mxCell id="pCD0jgpHs92SvYQqpGJX-43" value="" style="endArrow=none;html=1;rounded=0;" parent="1" source="pCD0jgpHs92SvYQqpGJX-34" target="InTDDSVPD--su6Mw10KX-98" edge="1">
          <mxGeometry width="50" height="50" relative="1" as="geometry">
            <mxPoint x="1160" y="1310" as="sourcePoint" />
            <mxPoint x="1210" y="1260" as="targetPoint" />
          </mxGeometry>
        </mxCell>
        <mxCell id="pCD0jgpHs92SvYQqpGJX-46" value="U" style="edgeLabel;html=1;align=center;verticalAlign=middle;resizable=0;points=[];" parent="pCD0jgpHs92SvYQqpGJX-43" connectable="0" vertex="1">
          <mxGeometry x="-0.5725" relative="1" as="geometry">
            <mxPoint as="offset" />
          </mxGeometry>
        </mxCell>
        <mxCell id="pCD0jgpHs92SvYQqpGJX-44" value="" style="endArrow=none;html=1;rounded=0;" parent="1" source="InTDDSVPD--su6Mw10KX-98" target="InTDDSVPD--su6Mw10KX-2" edge="1">
          <mxGeometry width="50" height="50" relative="1" as="geometry">
            <mxPoint x="1160" y="1310" as="sourcePoint" />
            <mxPoint x="1710" y="620" as="targetPoint" />
            <Array as="points">
              <mxPoint x="1760" y="400" />
            </Array>
          </mxGeometry>
        </mxCell>
        <mxCell id="pCD0jgpHs92SvYQqpGJX-45" value="T" style="edgeLabel;html=1;align=center;verticalAlign=middle;resizable=0;points=[];" parent="pCD0jgpHs92SvYQqpGJX-44" connectable="0" vertex="1">
          <mxGeometry x="0.9275" y="-2" relative="1" as="geometry">
            <mxPoint as="offset" />
          </mxGeometry>
        </mxCell>
        <mxCell id="Qc8OilLhdJWdQCUrqlG5-1" value="CodProfesor" style="ellipse;whiteSpace=wrap;html=1;" parent="1" vertex="1">
          <mxGeometry x="880" y="310" width="80" height="50" as="geometry" />
        </mxCell>
        <mxCell id="Qc8OilLhdJWdQCUrqlG5-3" value="" style="endArrow=none;html=1;rounded=0;" parent="1" source="InTDDSVPD--su6Mw10KX-3" target="Qc8OilLhdJWdQCUrqlG5-1" edge="1">
          <mxGeometry width="50" height="50" relative="1" as="geometry">
            <mxPoint x="870" y="320" as="sourcePoint" />
            <mxPoint x="920" y="270" as="targetPoint" />
          </mxGeometry>
        </mxCell>
        <mxCell id="Qc8OilLhdJWdQCUrqlG5-4" value="CodEstudiante" style="ellipse;whiteSpace=wrap;html=1;" parent="1" vertex="1">
          <mxGeometry x="1220" y="490" width="80" height="50" as="geometry" />
        </mxCell>
        <mxCell id="Qc8OilLhdJWdQCUrqlG5-5" value="" style="endArrow=none;html=1;rounded=0;" parent="1" source="Qc8OilLhdJWdQCUrqlG5-4" target="InTDDSVPD--su6Mw10KX-2" edge="1">
          <mxGeometry width="50" height="50" relative="1" as="geometry">
            <mxPoint x="1140" y="420" as="sourcePoint" />
            <mxPoint x="1190" y="370" as="targetPoint" />
          </mxGeometry>
        </mxCell>
        <mxCell id="Qc8OilLhdJWdQCUrqlG5-6" value="Pregunta" style="ellipse;whiteSpace=wrap;html=1;" parent="1" vertex="1">
          <mxGeometry x="840" y="1530" width="100" height="60" as="geometry" />
        </mxCell>
        <mxCell id="Qc8OilLhdJWdQCUrqlG5-7" value="" style="endArrow=none;html=1;rounded=0;" parent="1" source="Qc8OilLhdJWdQCUrqlG5-6" target="InTDDSVPD--su6Mw10KX-7" edge="1">
          <mxGeometry width="50" height="50" relative="1" as="geometry">
            <mxPoint x="1140" y="1420" as="sourcePoint" />
            <mxPoint x="1190" y="1370" as="targetPoint" />
          </mxGeometry>
        </mxCell>
        <mxCell id="Obs5ATMhI5aagDlobxmG-3" value="OPCIONES" style="rounded=0;whiteSpace=wrap;html=1;" vertex="1" parent="1">
          <mxGeometry x="1200" y="1720" width="120" height="60" as="geometry" />
        </mxCell>
        <mxCell id="Obs5ATMhI5aagDlobxmG-4" value="&lt;u&gt;IDopciones&lt;/u&gt;" style="ellipse;whiteSpace=wrap;html=1;" vertex="1" parent="1">
          <mxGeometry x="1110" y="1800" width="100" height="60" as="geometry" />
        </mxCell>
      </root>
    </mxGraphModel>
  </diagram>
</mxfile>
